# xmcd
#
# Track frame offsets:
#   150
#   19480
#   41893
#   60003
#   90025
#   109672
#   130643
#   152017
#   174740
#   204486
#   217433
#   239311
#   254630
#   275838
#   294619
#   306783
#   320427
#   332794
#   338495
#
# Disc length: 4695 seconds
#
# Revision: 0
# Processed by: cddbd v1.5.1PL2 Copyright (c) Steve Scherf et al.
# Submitted via: GXTranscoder 2.0.1939
#
DISCID=1a125513
DTITLE=Phil Collins  - Dance Into The Light
DYEAR=1900
DGENRE=Blues
TTITLE0=I Can`t Stop loving you
TTITLE1=Tell Me Why
TTITLE2=I Can't Dance
TTITLE3=No Son Of Mine
TTITLE4=That's All
TTITLE5=Follow You Follow You
TTITLE6=Land Of Confusion
TTITLE7=Easy Lover
TTITLE8=Both Sides Of Story
TTITLE9=You Can't Hurry Love
TTITLE10=Something Happened
TTITLE11=Two Hearts
TTITLE12=Don't Lose My Number
TTITLE13=Love Police
TTITLE14=Two Worlds
TTITLE15=I Wanna Know
TTITLE16=Son Of Man
TTITLE17=Dos Mundos
TTITLE18=It's In Your Eyes
EXTD=
EXTT0=
EXTT1=
EXTT2=
EXTT3=
EXTT4=
EXTT5=
EXTT6=
EXTT7=
EXTT8=
EXTT9=
EXTT10=
EXTT11=
EXTT12=
EXTT13=
EXTT14=
EXTT15=
EXTT16=
EXTT17=
EXTT18=
PLAYORDER=
